PathFileType	4	(X/Y/Z)	/Users/itak/Documents/Research/Walk-IL/dataset/trc/00064_00006.trc
DataRate	CameraRate	NumFrames	NumMarkers	Units	OrigDataRate	OrigDataStartFrame	OrigNumFrames
100.000000	100.000000	4	53	mm	100.000000	95	764
Frame#	Time	RPSI			LPSI			L3			STRN			T10			C7			CLAV			RBAK			LBAK			LSHO			LUPA			LAEL			LAOL			LWTS			LWPS			LFRA			LIFD			LHPS			LHTS			RSHO			RUPA			RAEL			RAOL			RWTS			RWPS			RFRA			RIFD			RHTS			RHPS			RBHD			LFHD			RFHD			LBHD			LHIP			RHIP			RASI			LASI			LKNE			LTHI			LANK			LTIP			LTOE			LMT1			LMT5			LHEE			RKNE			RTHI			RANK			RTIP			RTOE			RMT1			RMT5			RHEE			
		X1	Y1	Z1	X2	Y2	Z2	X3	Y3	Z3	X4	Y4	Z4	X5	Y5	Z5	X6	Y6	Z6	X7	Y7	Z7	X8	Y8	Z8	X9	Y9	Z9	X10	Y10	Z10	X11	Y11	Z11	X12	Y12	Z12	X13	Y13	Z13	X14	Y14	Z14	X15	Y15	Z15	X16	Y16	Z16	X17	Y17	Z17	X18	Y18	Z18	X19	Y19	Z19	X20	Y20	Z20	X21	Y21	Z21	X22	Y22	Z22	X23	Y23	Z23	X24	Y24	Z24	X25	Y25	Z25	X26	Y26	Z26	X27	Y27	Z27	X28	Y28	Z28	X29	Y29	Z29	X30	Y30	Z30	X31	Y31	Z31	X32	Y32	Z32	X33	Y33	Z33	X34	Y34	Z34	X35	Y35	Z35	X36	Y36	Z36	X37	Y37	Z37	X38	Y38	Z38	X39	Y39	Z39	X40	Y40	Z40	X41	Y41	Z41	X42	Y42	Z42	X43	Y43	Z43	X44	Y44	Z44	X45	Y45	Z45	X46	Y46	Z46	X47	Y47	Z47	X48	Y48	Z48	X49	Y49	Z49	X50	Y50	Z50	X51	Y51	Z51	X52	Y52	Z52	X53	Y53	Z53	

96	0.9500000000000001	-90.53543853759766	1039.83642578125	1288.713623046875	-102.9238586425781	1035.115966796875	1113.945556640625	-91.43339538574219	1085.717041015625	1194.004638671875	153.6143646240234	1289.54248046875	1196.0986328125	-113.0779876708984	1219.80712890625	1188.368530273438	-58.55891036987305	1487.7412109375	1186.05224609375	122.2170944213867	1403.646240234375	1193.059936523438	-119.3384323120117	1347.935424804688	1259.961303710938	-76.661865234375	1450.170776367188	1084.245239257812	29.25007629394531	1455.994750976562	1014.283081054688	18.48406410217285	1327.31494140625	937.7304077148438	48.05721282958984	1111.810180664062	925.1546630859375	-18.71991920471191	1096.7333984375	1007.524108886719	144.2342529296875	877.2106323242188	999.3566284179688	90.38965606689453	863.1195678710938	936.184814453125	73.14875030517578	1003.538452148438	921.6004638671875	160.0880126953125	693.6874389648438	1026.821533203125	125.2129745483398	782.5789184570312	945.6907348632812	168.8717041015625	795.318603515625	1000.719787597656	1.493140578269958	1453.053100585938	1363.578369140625	-10.56407737731934	1383.699584960938	1426.382934570312	-36.56959915161133	1119.019287109375	1456.902465820312	-16.37150764465332	1097.0400390625	1362.083374023438	113.0618133544922	870.159912109375	1424.331176757812	40.86026763916016	854.3408813476562	1471.132080078125	-21.6114673614502	1038.625854492188	1464.908569335938	112.5555114746094	679.4971313476562	1403.24267578125	132.9720306396484	765.2254028320312	1423.973999023438	73.78363037109375	764.4422607421875	1472.623291015625	-15.73989009857178	1671.848266601562	1125.8974609375	146.5979461669922	1699.93310546875	1265.058959960938	158.4853973388672	1705.402587890625	1139.453002929688	-20.12835884094238	1658.503051757812	1263.142822265625	-4.561573028564453	967.2655029296875	1022.227416992188	-26.03418159484863	967.5951538085938	1366.8056640625	99.30801391601562	982.2767944335938	1345.564453125	111.716178894043	973.3849487304688	1075.329345703125	27.85217666625977	501.1715087890625	1068.348754882812	8.28153133392334	644.2924194335938	1031.898803710938	-65.81143188476562	51.48222732543945	1055.598876953125	-28.55246162414551	268.4333801269531	1048.018798828125	139.7032775878906	44.57021713256836	1058.797729492188	90.76019287109375	42.6917724609375	1113.045043945312	36.29960632324219	42.98482513427734	1015.748962402344	-119.242057800293	47.68450164794922	1130.901245117188	43.20944595336914	521.4404296875	1345.447143554688	55.62203598022461	791.4965209960938	1375.632080078125	-53.71811294555664	43.16047668457031	1340.0048828125	20.94012260437012	398.9474792480469	1350.815673828125	163.9242248535156	44.02145767211914	1307.69775390625	104.568717956543	50.10268402099609	1267.505981445312	71.02903747558594	48.58618927001953	1359.15673828125	-98.82968139648438	45.67805480957031	1281.243530273438	
97	0.96	-90.58650207519531	1039.587524414062	1288.80029296875	-102.4994354248047	1034.858276367188	1114.101440429688	-91.41809844970703	1085.734008789062	1194.045043945312	153.9535522460938	1289.476684570312	1196.345947265625	-112.7632904052734	1219.86767578125	1188.507202148438	-58.11562347412109	1487.754760742188	1186.219970703125	122.6241149902344	1403.6220703125	1193.283569335938	-118.9789352416992	1347.977416992188	1260.105590820312	-76.15024566650391	1450.226684570312	1084.456298828125	29.6722469329834	1456.060424804688	1014.485168457031	18.89157867431641	1327.422729492188	937.896728515625	48.33364486694336	1111.894897460938	925.2935180664062	-18.34449768066406	1096.849365234375	1007.702575683594	144.4804382324219	877.252197265625	999.56494140625	90.60772705078125	863.180419921875	936.3746337890625	73.45024108886719	1003.6083984375	921.780517578125	160.2204742431641	693.7572021484375	1027.052734375	125.4194183349609	782.6378784179688	945.9017944335938	169.1024780273438	795.3673095703125	1000.946350097656	1.831854104995728	1453.0517578125	1363.779418945312	-10.27554988861084	1383.717895507812	1426.590576171875	-36.35593795776367	1119.021240234375	1457.035034179688	-16.3080940246582	1097.090209960938	1362.222045898438	113.2694931030273	870.1820068359375	1424.302856445312	41.10908126831055	854.3154296875	1471.166015625	-21.47982597351074	1038.569213867188	1464.985595703125	112.8836822509766	679.5040283203125	1403.020874023438	133.2422637939453	765.2982788085938	1423.841186523438	74.18337249755859	764.4892578125	1472.543823242188	-15.64443492889404	1671.7724609375	1126.494384765625	147.3541564941406	1699.917358398438	1264.915161132812	158.7228546142578	1705.336547851562	1139.215209960938	-19.44042015075684	1658.517456054688	1263.750122070312	-4.029549121856689	967.2079467773438	1022.377075195312	-26.14542198181152	967.4490966796875	1366.964477539062	99.23314666748047	982.3886108398438	1346.010498046875	112.1174545288086	973.4229736328125	1075.810791015625	27.95585632324219	501.1641540527344	1068.301147460938	8.67615795135498	644.3341064453125	1031.826171875	-65.89719390869141	51.39861679077148	1055.453002929688	-28.38432884216309	268.3620910644531	1047.851684570312	139.5507507324219	44.7242546081543	1058.647338867188	90.71698760986328	42.84157180786133	1112.924926757812	36.18343353271484	43.01559066772461	1015.668090820312	-119.3345489501953	47.64867782592773	1130.785034179688	46.27864074707031	521.390380859375	1345.179443359375	56.42958831787109	791.3905029296875	1375.656982421875	-53.70172119140625	43.26673126220703	1339.966674804688	23.8228645324707	398.5327453613281	1350.676391601562	163.8945922851562	44.3929557800293	1307.974609375	104.6506576538086	50.22161865234375	1267.607421875	70.9298095703125	48.77787399291992	1359.17919921875	-98.740234375	45.67441940307617	1281.154052734375	
98	0.97	-90.58036804199219	1039.22412109375	1288.926025390625	-102.0600891113281	1034.558959960938	1114.297607421875	-91.38864898681641	1085.725708007812	1194.122192382812	154.3460845947266	1289.372924804688	1196.651123046875	-112.4159774780273	1219.907958984375	1188.662109375	-57.62691497802734	1487.7470703125	1186.408813476562	123.0546035766602	1403.56689453125	1193.56689453125	-118.607536315918	1348.002685546875	1260.243286132812	-75.57788848876953	1450.25927734375	1084.69287109375	30.17111206054688	1456.097045898438	1014.731140136719	19.3798942565918	1327.511474609375	938.0890502929688	48.64251327514648	1111.95849609375	925.4188232421875	-17.94061279296875	1096.935424804688	1007.868103027344	144.7077484130859	877.2537841796875	999.7506103515625	90.81272125244141	863.2115478515625	936.5333251953125	73.76247406005859	1003.649353027344	921.942626953125	160.3288879394531	693.7859497070312	1027.261474609375	125.615592956543	782.6617431640625	946.0936279296875	169.3313598632812	795.3794555664062	1001.136840820312	2.197458744049072	1453.02490234375	1364.027709960938	-9.950018882751465	1383.699951171875	1426.842895507812	-36.13871383666992	1118.9755859375	1457.208251953125	-16.24924850463867	1097.117919921875	1362.385375976562	113.484504699707	870.2017211914062	1424.284423828125	41.37733840942383	854.2576293945312	1471.229736328125	-21.37452125549316	1038.493286132812	1465.100341796875	113.2484359741211	679.5025634765625	1402.748413085938	133.5074005126953	765.3468017578125	1423.685668945312	74.60660552978516	764.4891357421875	1472.463623046875	-15.55313301086426	1671.655395507812	1127.1982421875	148.2135467529297	1699.875854492188	1264.73046875	158.9569549560547	1705.232543945312	1138.923095703125	-18.63742065429688	1658.508056640625	1264.458618164062	-3.443549871444702	967.1395874023438	1022.564880371094	-26.16559219360352	967.1995239257812	1367.137084960938	99.26377868652344	982.452880859375	1346.486694335938	112.5684661865234	973.4547729492188	1076.320190429688	28.09131813049316	501.1617736816406	1068.267822265625	9.119810104370117	644.3832397460938	1031.795166015625	-65.99566650390625	51.31307220458984	1055.310913085938	-28.23256683349609	268.2950744628906	1047.692993164062	139.3691558837891	44.91388320922852	1058.459228515625	90.664794921875	43.00336074829102	1112.780639648438	36.02566146850586	43.05587387084961	1015.557373046875	-119.4066696166992	47.60733032226562	1130.68701171875	49.34139633178711	521.2600708007812	1344.929321289062	57.36391830444336	791.2274169921875	1375.688354492188	-53.68581390380859	43.38022994995117	1339.922973632812	26.61709213256836	398.1032104492188	1350.54638671875	163.8457183837891	44.83511734008789	1308.239868164062	104.7291946411133	50.33952331542969	1267.684204101562	70.81179809570312	48.98637008666992	1359.17626953125	-98.65044403076172	45.66183471679688	1281.065063476562	
99	0.98	-90.48670959472656	1038.750610351562	1289.104370117188	-101.6136703491211	1034.217163085938	1114.538940429688	-91.3255615234375	1085.686889648438	1194.250122070312	154.7914733886719	1289.231567382812	1197.017822265625	-112.0439147949219	1219.922607421875	1188.835205078125	-57.09212875366211	1487.714233398438	1186.632080078125	123.5108184814453	1403.472778320312	1193.9150390625	-118.2172698974609	1348.003051757812	1260.383178710938	-74.95054626464844	1450.261596679688	1084.953979492188	30.75838470458984	1456.09375	1015.027587890625	19.95183181762695	1327.568969726562	938.3123779296875	48.99738311767578	1111.989990234375	925.533935546875	-17.52017211914062	1096.978759765625	1008.010864257812	144.9155883789062	877.2052612304688	999.9166259765625	91.01278686523438	863.2021484375	936.6627807617188	74.08860015869141	1003.649475097656	922.0859375	160.4188232421875	693.7642211914062	1027.450439453125	125.8091201782227	782.6404418945312	946.2677001953125	169.5525817871094	795.3426513671875	1001.296997070312	2.59236478805542	1452.96240234375	1364.328002929688	-9.588642120361328	1383.635009765625	1427.147216796875	-35.93022155761719	1118.871459960938	1457.42236328125	-16.18515396118164	1097.109619140625	1362.576416015625	113.7145233154297	870.21630859375	1424.282470703125	41.66590881347656	854.1560668945312	1471.316772460938	-21.29347229003906	1038.38623046875	1465.254760742188	113.6379470825195	679.4788208007812	1402.446655273438	133.7785339355469	765.3587036132812	1423.515380859375	75.03245544433594	764.431884765625	1472.388793945312	-15.46689033508301	1671.48876953125	1128.016967773438	149.1788482666016	1699.814208984375	1264.495483398438	159.1769561767578	1705.092163085938	1138.57177734375	-17.70319557189941	1658.469482421875	1265.276000976562	-2.815830945968628	967.058349609375	1022.789367675781	-26.0517692565918	966.8474731445312	1367.336059570312	99.43769073486328	982.4689331054688	1346.974853515625	113.073112487793	973.479248046875	1076.8330078125	28.27030944824219	501.1672973632812	1068.255493164062	9.609950065612793	644.4367065429688	1031.811889648438	-66.10808563232422	51.22943496704102	1055.177001953125	-28.09877586364746	268.2359619140625	1047.555908203125	139.1578674316406	45.15033340454102	1058.23583984375	90.60449981689453	43.17657089233398	1112.61669921875	35.81922149658203	43.11127853393555	1015.413452148438	-119.4601516723633	47.55839920043945	1130.611206054688	52.279052734375	521.0591430664062	1344.71435546875	58.43130493164062	791.0147094726562	1375.732788085938	-53.68597030639648	43.48719787597656	1339.873413085938	29.22427368164062	397.6686096191406	1350.43798828125	163.76416015625	45.36034393310547	1308.4794921875	104.774787902832	50.45403289794922	1267.728393554688	70.66988372802734	49.2139778137207	1359.14453125	-98.58003234863281	45.63695907592773	1280.988647460938	
